<?xml version="1.0" encoding="UTF-8" standalone="no"?>
<svg
   xmlns:dc="http://purl.org/dc/elements/1.1/"
   xmlns:cc="http://creativecommons.org/ns#"
   xmlns:rdf="http://www.w3.org/1999/02/22-rdf-syntax-ns#"
   xmlns:svg="http://www.w3.org/2000/svg"
   xmlns="http://www.w3.org/2000/svg"
   viewBox="0 0 3333.3333 3333.3333"
   height="3333.3333"
   width="3333.3333"
   xml:space="preserve"
   id="svg2"
   version="1.1"><metadata
     id="metadata8"><rdf:RDF><cc:Work
         rdf:about=""><dc:format>image/svg+xml</dc:format><dc:type
           rdf:resource="http://purl.org/dc/dcmitype/StillImage" /></cc:Work></rdf:RDF></metadata><defs
     id="defs6"><clipPath
       id="clipPath18"
       clipPathUnits="userSpaceOnUse"><path
         id="path16"
         d="M 0,2500 H 2500 V 0 H 0 Z" /></clipPath></defs><g
     transform="matrix(1.3333333,0,0,-1.3333333,0,3333.3333)"
     id="g10"><g
       id="g12"><g
         clip-path="url(#clipPath18)"
         id="g14"><g
           transform="translate(1729.7832,1136.6758)"
           id="g20"><path
             id="path22"
             style="fill:#1d1e1e;fill-opacity:1;fill-rule:nonzero;stroke:none"
             d="m 0,0 c -14.607,-15.156 -32.793,-22.32 -54.012,-22.32 -20.94,0 -39.126,7.164 -54.281,22.32 -14.878,15.155 -22.32,32.788 -22.32,54.007 0,21.216 7.442,39.126 22.32,54.282 15.155,15.156 33.341,22.32 54.281,22.32 21.219,0 38.852,-7.164 54.012,-22.32 C 15.152,93.133 22.594,75.223 22.594,54.007 22.594,32.788 15.152,15.155 0,0 m -601.343,-54.023 c 3.307,17.907 12.122,32.789 26.451,44.636 14.054,11.574 30.311,17.637 48.775,17.637 18.46,0 34.443,-6.063 48.771,-17.637 14.055,-11.847 22.869,-26.729 26.177,-44.636 0.274,-2.759 -0.553,-3.861 -3.308,-3.861 h -143.559 c -2.481,0 -3.582,1.102 -3.307,3.861 m 616.22,176.641 c -19.29,19.287 -41.885,28.657 -68.889,28.657 -26.728,0 -49.597,-9.37 -68.61,-28.657 -19.013,-19.013 -28.384,-41.882 -28.384,-68.611 0,-26.73 9.371,-49.599 28.384,-68.611 19.013,-19.291 41.882,-28.658 68.61,-28.658 29.485,0 54.012,11.575 73.848,34.165 0.277,0.553 0.826,0.827 1.657,0.553 0.549,-0.553 1.101,-0.827 1.101,-1.376 V -58.453 H -429.57 c -2.064,22.517 -11.315,42.09 -27.937,58.711 -19.012,19.287 -41.881,28.658 -68.61,28.658 -27.004,0 -49.598,-9.371 -68.889,-28.658 -19.013,-19.012 -28.38,-41.885 -28.38,-68.611 v -10.471 h 168.909 c 2.755,0 3.582,-1.38 3.308,-3.582 -3.308,-17.911 -12.122,-32.793 -26.177,-44.641 -14.054,-11.57 -30.311,-17.637 -48.771,-17.637 -30.864,0 -58.417,17.912 -70.539,46.02 h -22.046 c 6.338,-19.565 18.463,-36.097 35.544,-48.497 17.084,-12.401 35.822,-18.464 57.041,-18.464 26.729,0 49.598,9.371 68.61,28.658 17.048,17.047 26.319,37.207 28.058,60.459 H 22.594 40.53 43.257 V 54.007 c 0,27.004 -9.367,49.873 -28.38,68.611" /></g><g
           transform="translate(846.2354,1059.1826)"
           id="g24"><path
             id="path26"
             style="fill:#1d1e1e;fill-opacity:1;fill-rule:nonzero;stroke:none"
             d="m 0,0 h 156.046 c 0.823,0 1.645,0.011 2.469,0.032 0.682,0.011 1.364,0.032 2.046,0.066 0.747,0.032 1.483,0.064 2.231,0.119 0.649,0.043 1.299,0.086 1.949,0.14 0.087,0.011 0.162,0.011 0.249,0.022 l 1.018,0.087 c 22.143,2.09 41.255,11.315 57.812,27.915 18.743,18.993 28.099,42.143 28.099,68.607 0,27.017 -9.356,49.583 -28.641,68.901 -13.557,13.535 -29.063,22.176 -46.518,26.009 v -21.104 c 11.814,-3.476 22.35,-9.973 31.9,-19.534 15.16,-14.878 22.317,-33.07 22.317,-54.272 0,-20.941 -7.157,-39.143 -22.317,-54.27 -9.55,-9.378 -20.086,-15.81 -31.9,-19.264 -2.512,-0.747 -5.078,-1.353 -7.71,-1.808 -2.999,-0.542 -6.063,-0.91 -9.225,-1.094 -0.174,-0.011 -0.358,-0.011 -0.531,-0.022 -0.4,-0.032 -0.812,-0.054 -1.223,-0.064 -0.466,-0.012 -0.943,-0.033 -1.419,-0.044 -0.66,-0.011 -1.321,-0.022 -1.982,-0.022 -0.963,0 -1.927,0.011 -2.88,0.054 -0.671,0.012 -1.332,0.044 -1.992,0.087 -0.801,0.032 -1.592,0.098 -2.382,0.162 -1.126,0.098 -2.242,0.206 -3.346,0.358 -2.924,0.357 -5.783,0.887 -8.566,1.57 -13.123,3.216 -24.764,9.919 -35.105,20.087 -15.17,15.127 -22.36,33.329 -22.36,54.27 0,21.202 7.19,39.394 22.36,54.272 10.341,10.373 21.982,17.13 35.105,20.368 v 20.876 C 116.836,189.007 100.345,180.171 86.063,165.889 66.777,146.571 57.39,124.005 57.39,96.988 57.39,67.232 68.976,42.718 91.553,23.433 92.126,23.14 92.375,22.317 92.126,21.19 91.553,20.649 91.293,20.4 90.719,20.4 H 18.05 c -34.78,0 -62.977,8.804 -62.977,62.978 h -18.051 v -20.4 C -62.978,28.196 -34.78,0 0,0" /></g><g
           transform="translate(1675.4121,1329.2017)"
           id="g28"><path
             id="path30"
             style="fill:#1d1e1e;fill-opacity:1;fill-rule:nonzero;stroke:none"
             d="M 0,0 C 12.964,0 23.473,10.509 23.473,23.472 23.473,36.436 12.964,46.944 0,46.944 -12.963,46.944 -23.472,36.436 -23.472,23.472 -23.472,10.509 -12.963,0 0,0" /></g><g
           transform="translate(1001.752,1329.2266)"
           id="g32"><path
             id="path34"
             style="fill:#1d1e1e;fill-opacity:1;fill-rule:nonzero;stroke:none"
             d="M 0,0 C 12.963,0 23.472,10.509 23.472,23.472 23.472,36.436 12.963,46.944 0,46.944 -12.963,46.944 -23.472,36.436 -23.472,23.472 -23.472,10.509 -12.963,0 0,0" /></g><g
           transform="translate(992.5684,1278.0215)"
           id="g36"><path
             id="path38"
             style="fill:#1d1e1e;fill-opacity:1;fill-rule:nonzero;stroke:none"
             d="m 0,0 c 2.815,-1.191 5.912,-1.852 9.161,-1.852 3.757,0 7.297,0.877 10.438,2.447 7.72,3.834 13.026,11.814 13.026,21.029 0,8.911 -4.959,16.654 -12.268,20.627 h -0.011 c -0.249,0.142 -0.498,0.271 -0.747,0.391 -3.141,1.569 -6.681,2.446 -10.438,2.446 C 5.912,45.088 2.815,44.428 0,43.226 -0.693,42.945 -1.365,42.62 -2.025,42.263 -9.345,38.289 -14.315,30.535 -14.315,21.624 -14.315,11.9 -8.414,3.573 0,0" /></g><g
           transform="translate(925.0337,809.5928)"
           id="g40"><path
             id="path42"
             style="fill:#1d1e1e;fill-opacity:1;fill-rule:nonzero;stroke:none"
             d="m 0,0 c -14.042,-14.569 -31.525,-21.457 -51.923,-21.457 -20.132,0 -37.614,6.888 -52.184,21.457 -14.303,14.57 -21.457,31.521 -21.457,51.92 0,20.394 7.154,37.613 21.457,52.184 14.57,14.569 32.052,21.457 52.184,21.457 20.398,0 37.349,-6.888 51.923,-21.457 C 14.566,89.533 21.721,72.314 21.721,51.92 21.721,31.521 14.566,14.57 0,0 m -51.923,145.429 c -25.697,0 -47.681,-9.009 -65.959,-27.551 -18.277,-18.277 -27.286,-40.262 -27.286,-65.958 0,-25.696 9.009,-47.681 27.286,-65.958 18.278,-18.545 40.262,-27.551 65.959,-27.551 28.344,0 51.923,11.127 70.992,32.844 0.267,0.531 0.795,0.795 1.593,0.531 0.528,-0.531 1.059,-0.795 1.059,-1.322 V -38.939 H 41.585 V 51.92 c 0,25.96 -9.005,47.944 -27.283,65.958 -18.544,18.542 -40.265,27.551 -66.225,27.551" /></g><g
           transform="translate(1012.1675,1385.3726)"
           id="g44"><path
             id="path46"
             style="fill:#1d1e1e;fill-opacity:1;fill-rule:nonzero;stroke:none"
             d="M 0,0 V 1114.627 H -19.599 V 0.379 c 2.923,0.812 5.998,1.245 9.182,1.245 C -6.79,1.624 -3.292,1.061 0,0" /></g><g
           transform="translate(1138.0024,809.5918)"
           id="g48"><path
             id="path50"
             style="fill:#1d1e1e;fill-opacity:1;fill-rule:nonzero;stroke:none"
             d="m 0,0 c -14.304,-14.564 -31.792,-21.451 -52.192,-21.451 -20.13,0 -37.618,6.887 -52.182,21.451 -14.304,14.574 -21.461,31.521 -21.461,51.921 0,20.39 7.157,37.617 21.461,52.182 14.564,14.574 32.052,21.461 52.182,21.461 20.4,0 37.888,-6.887 52.192,-21.461 C 14.564,89.538 21.722,72.311 21.722,51.921 21.722,31.521 14.564,14.574 0,0 m -52.192,145.434 c -28.608,0 -52.182,-11.131 -70.72,-32.853 -0.27,-0.53 -1.061,-0.791 -2.122,-0.53 -0.53,0.53 -0.801,0.79 -0.801,1.332 v 125.802 c -3.248,-0.282 -6.54,-0.422 -9.886,-0.422 h -9.713 V 50.6 c 0,-25.436 9.009,-46.886 27.287,-65.164 18.278,-18.018 40.53,-27.028 65.955,-27.028 25.966,0 47.688,9.01 66.225,27.558 18.279,18.278 27.287,40.26 27.287,65.955 0,25.695 -9.008,47.677 -27.287,65.955 -18.537,18.549 -40.259,27.558 -66.225,27.558" /></g><g
           transform="translate(992.5684,1266.5864)"
           id="g52"><path
             id="path54"
             style="fill:#1d1e1e;fill-opacity:1;fill-rule:nonzero;stroke:none"
             d="m 0,0 v -2.631 -42.198 -130.88 c 2.707,-0.315 5.49,-0.466 8.337,-0.466 3.888,0 7.635,0.292 11.262,0.877 v 130.08 42.349 3.237 C 16.253,-0.704 12.755,-1.245 9.161,-1.245 6.031,-1.245 2.967,-0.833 0,0" /></g><g
           transform="translate(1350.7021,809.5928)"
           id="g56"><path
             id="path58"
             style="fill:#1d1e1e;fill-opacity:1;fill-rule:nonzero;stroke:none"
             d="m 0,0 c -14.306,-14.569 -31.788,-21.457 -52.187,-21.457 -20.13,0 -37.613,6.888 -52.183,21.457 -14.303,14.57 -21.458,31.521 -21.458,51.92 0,20.394 7.155,37.613 21.458,52.184 14.57,14.569 32.053,21.457 52.183,21.457 20.399,0 37.881,-6.888 52.187,-21.457 C 14.57,89.533 21.722,72.314 21.722,51.92 21.722,31.521 14.57,14.57 0,0 m -52.187,145.429 c -25.692,0 -47.681,-9.009 -65.958,-27.551 -18.277,-18.277 -27.286,-40.262 -27.286,-65.958 0,-25.696 9.009,-47.681 27.286,-65.958 18.277,-18.545 40.266,-27.551 65.958,-27.551 25.96,0 47.681,9.006 66.226,27.551 18.277,18.277 27.282,40.262 27.282,65.958 0,25.696 -9.005,47.681 -27.282,65.958 -18.545,18.542 -40.266,27.551 -66.226,27.551" /></g><g
           transform="translate(1505.9209,802.4395)"
           id="g60"><path
             id="path62"
             style="fill:#1d1e1e;fill-opacity:1;fill-rule:nonzero;stroke:none"
             d="m 0,0 c -2.382,-9.272 -8.21,-14.039 -17.746,-14.039 -10.065,0 -15.893,4.502 -17.75,13.774 l -32.317,148.872 h -20.13 l 33.11,-153.11 c 3.711,-16.955 19.337,-29.667 37.087,-29.667 17.746,0 33.11,12.712 37.086,29.667 l 33.906,153.11 H 33.114 Z" /></g><g
           transform="translate(1747.5059,871.5771)"
           id="g64"><path
             id="path66"
             style="fill:#1d1e1e;fill-opacity:1;fill-rule:nonzero;stroke:none"
             d="m 0,0 h -138.01 c -2.648,0 -3.443,1.06 -3.179,3.712 3.179,17.215 11.653,31.52 25.165,42.911 13.774,11.126 29.139,16.954 46.885,16.954 17.75,0 33.379,-5.828 46.89,-16.954 C -8.475,35.232 0,20.927 3.18,3.712 3.443,1.06 2.385,0 0,0 m -69.139,83.445 c -25.696,0 -47.68,-9.008 -65.959,-27.549 -18.277,-18.279 -27.285,-40.267 -27.285,-65.959 0,-25.697 9.008,-47.685 27.285,-65.962 18.279,-18.541 40.263,-27.55 65.959,-27.55 20.399,0 38.412,5.828 54.836,17.75 16.42,11.921 28.077,27.813 34.17,46.622 H -1.326 c -11.654,-27.023 -38.142,-44.241 -67.813,-44.241 -17.746,0 -33.375,5.832 -46.885,16.955 -13.512,11.39 -21.986,25.696 -25.165,42.915 -0.264,2.117 0.531,3.443 3.179,3.443 H 24.369 v 10.068 c 0,25.692 -9.005,47.68 -27.282,65.959 -18.544,18.541 -40.266,27.549 -66.226,27.549" /></g></g></g></g></svg>